<?xml version="1.0" standalone="no"?>
<!DOCTYPE svg PUBLIC "-//W3C//DTD SVG 1.1//EN" 
  "http://www.w3.org/Graphics/SVG/1.1/DTD/svg11.dtd">
<svg xmlns="http://www.w3.org/2000/svg" version="1.1" viewBox="0 0 220 135"><defs>
    <style type="text/css"><![CDATA[
      .month {
        font-family: arial;
        fill: #000000;}
      .legend {
        font-family: arial;
        fill: #000000;}
      .legend-zero {
        font-family: arial;
        font-size: 10px;
        fill: #000000;}
    ]]></style>
  </defs>
  
    <rect x="0" y="0" width="220" height="135" fill="white" fill-opacity="0.5" stroke="none"/><g transform="translate(16, 20)">
      
        <g transform="translate(0, 0)"><a href="https://pixe.la/v1/users/hmainland/graphs/med/20230514/retina.svg" target="_blank"><rect class="each-day" rx="2" ry="2" width="10" height="10" x="13" y="0" fill="#eeeeee" data-count="0" data-date="2023-05-14" data-unit="20" data-retina="false" data-retinaday="20230514" data-index="98" /></a>
      <a href="https://pixe.la/v1/users/hmainland/graphs/med/20230515/retina.svg" target="_blank"><rect class="each-day" rx="2" ry="2" width="10" height="10" x="13" y="12" fill="#eeeeee" data-count="0" data-date="2023-05-15" data-unit="20" data-retina="false" data-retinaday="20230515" data-index="97" /></a>
      <a href="https://pixe.la/v1/users/hmainland/graphs/med/20230516/retina.svg" target="_blank"><rect class="each-day" rx="2" ry="2" width="10" height="10" x="13" y="24" fill="#eeeeee" data-count="0" data-date="2023-05-16" data-unit="20" data-retina="false" data-retinaday="20230516" data-index="96" /></a>
      <a href="https://pixe.la/v1/users/hmainland/graphs/med/20230517/retina.svg" target="_blank"><rect class="each-day" rx="2" ry="2" width="10" height="10" x="13" y="36" fill="#eeeeee" data-count="0" data-date="2023-05-17" data-unit="20" data-retina="false" data-retinaday="20230517" data-index="95" /></a>
      <a href="https://pixe.la/v1/users/hmainland/graphs/med/20230518/retina.svg" target="_blank"><rect class="each-day" rx="2" ry="2" width="10" height="10" x="13" y="48" fill="#eeeeee" data-count="0" data-date="2023-05-18" data-unit="20" data-retina="false" data-retinaday="20230518" data-index="94" /></a>
      <a href="https://pixe.la/v1/users/hmainland/graphs/med/20230519/retina.svg" target="_blank"><rect class="each-day" rx="2" ry="2" width="10" height="10" x="13" y="60" fill="#eeeeee" data-count="0" data-date="2023-05-19" data-unit="20" data-retina="false" data-retinaday="20230519" data-index="93" /></a>
      <a href="https://pixe.la/v1/users/hmainland/graphs/med/20230520/retina.svg" target="_blank"><rect class="each-day" rx="2" ry="2" width="10" height="10" x="13" y="72" fill="#eeeeee" data-count="0" data-date="2023-05-20" data-unit="20" data-retina="false" data-retinaday="20230520" data-index="92" /></a>
        <rect class="weekly-streak" rx="2" ry="2" width="10" height="5" x="13" y="85" fill="#eeeeee" data-week="20230514 - 20230520" data-avg-count="0.00" data-sum-count="0" data-unit="20" data-index="0" /></g>
        
      
      
        <g transform="translate(13, 0)"><a href="https://pixe.la/v1/users/hmainland/graphs/med/20230521/retina.svg" target="_blank"><rect class="each-day" rx="2" ry="2" width="10" height="10" x="12" y="0" fill="#eeeeee" data-count="0" data-date="2023-05-21" data-unit="20" data-retina="false" data-retinaday="20230521" data-index="91" /></a>
      <a href="https://pixe.la/v1/users/hmainland/graphs/med/20230522/retina.svg" target="_blank"><rect class="each-day" rx="2" ry="2" width="10" height="10" x="12" y="12" fill="#eeeeee" data-count="0" data-date="2023-05-22" data-unit="20" data-retina="false" data-retinaday="20230522" data-index="90" /></a>
      <a href="https://pixe.la/v1/users/hmainland/graphs/med/20230523/retina.svg" target="_blank"><rect class="each-day" rx="2" ry="2" width="10" height="10" x="12" y="24" fill="#eeeeee" data-count="0" data-date="2023-05-23" data-unit="20" data-retina="false" data-retinaday="20230523" data-index="89" /></a>
      <a href="https://pixe.la/v1/users/hmainland/graphs/med/20230524/retina.svg" target="_blank"><rect class="each-day" rx="2" ry="2" width="10" height="10" x="12" y="36" fill="#eeeeee" data-count="0" data-date="2023-05-24" data-unit="20" data-retina="false" data-retinaday="20230524" data-index="88" /></a>
      <a href="https://pixe.la/v1/users/hmainland/graphs/med/20230525/retina.svg" target="_blank"><rect class="each-day" rx="2" ry="2" width="10" height="10" x="12" y="48" fill="#eeeeee" data-count="0" data-date="2023-05-25" data-unit="20" data-retina="false" data-retinaday="20230525" data-index="87" /></a>
      <a href="https://pixe.la/v1/users/hmainland/graphs/med/20230526/retina.svg" target="_blank"><rect class="each-day" rx="2" ry="2" width="10" height="10" x="12" y="60" fill="#eeeeee" data-count="0" data-date="2023-05-26" data-unit="20" data-retina="false" data-retinaday="20230526" data-index="86" /></a>
      <a href="https://pixe.la/v1/users/hmainland/graphs/med/20230527/retina.svg" target="_blank"><rect class="each-day" rx="2" ry="2" width="10" height="10" x="12" y="72" fill="#eeeeee" data-count="0" data-date="2023-05-27" data-unit="20" data-retina="false" data-retinaday="20230527" data-index="85" /></a>
        <rect class="weekly-streak" rx="2" ry="2" width="10" height="5" x="12" y="85" fill="#eeeeee" data-week="20230521 - 20230527" data-avg-count="0.00" data-sum-count="0" data-unit="20" data-index="1" /></g>
        
      
      
        <g transform="translate(26, 0)"><a href="https://pixe.la/v1/users/hmainland/graphs/med/20230528/retina.svg" target="_blank"><rect class="each-day" rx="2" ry="2" width="10" height="10" x="11" y="0" fill="#eeeeee" data-count="0" data-date="2023-05-28" data-unit="20" data-retina="false" data-retinaday="20230528" data-index="84" /></a>
      <a href="https://pixe.la/v1/users/hmainland/graphs/med/20230529/retina.svg" target="_blank"><rect class="each-day" rx="2" ry="2" width="10" height="10" x="11" y="12" fill="#eeeeee" data-count="0" data-date="2023-05-29" data-unit="20" data-retina="false" data-retinaday="20230529" data-index="83" /></a>
      <a href="https://pixe.la/v1/users/hmainland/graphs/med/20230530/retina.svg" target="_blank"><rect class="each-day" rx="2" ry="2" width="10" height="10" x="11" y="24" fill="#eeeeee" data-count="0" data-date="2023-05-30" data-unit="20" data-retina="false" data-retinaday="20230530" data-index="82" /></a>
      <a href="https://pixe.la/v1/users/hmainland/graphs/med/20230531/retina.svg" target="_blank"><rect class="each-day" rx="2" ry="2" width="10" height="10" x="11" y="36" fill="#eeeeee" data-count="0" data-date="2023-05-31" data-unit="20" data-retina="false" data-retinaday="20230531" data-index="81" /></a>
      <a href="https://pixe.la/v1/users/hmainland/graphs/med/20230601/retina.svg" target="_blank"><rect class="each-day" rx="2" ry="2" width="10" height="10" x="11" y="48" fill="#eeeeee" data-count="0" data-date="2023-06-01" data-unit="20" data-retina="false" data-retinaday="20230601" data-index="80" /></a>
      <a href="https://pixe.la/v1/users/hmainland/graphs/med/20230602/retina.svg" target="_blank"><rect class="each-day" rx="2" ry="2" width="10" height="10" x="11" y="60" fill="#eeeeee" data-count="0" data-date="2023-06-02" data-unit="20" data-retina="false" data-retinaday="20230602" data-index="79" /></a>
      <a href="https://pixe.la/v1/users/hmainland/graphs/med/20230603/retina.svg" target="_blank"><rect class="each-day" rx="2" ry="2" width="10" height="10" x="11" y="72" fill="#1e6823" data-count="60" data-date="2023-06-03" data-unit="20" data-retina="false" data-retinaday="20230603" data-index="78" /></a>
        <rect class="weekly-streak" rx="2" ry="2" width="10" height="5" x="11" y="85" fill="#8cc665" data-week="20230528 - 20230603" data-avg-count="8.57" data-sum-count="60" data-unit="20" data-index="2" /></g>
        
      
      
        <g transform="translate(39, 0)"><a href="https://pixe.la/v1/users/hmainland/graphs/med/20230604/retina.svg" target="_blank"><rect class="each-day" rx="2" ry="2" width="10" height="10" x="10" y="0" fill="#1e6823" data-count="40" data-date="2023-06-04" data-unit="20" data-retina="false" data-retinaday="20230604" data-index="77" /></a>
      <a href="https://pixe.la/v1/users/hmainland/graphs/med/20230605/retina.svg" target="_blank"><rect class="each-day" rx="2" ry="2" width="10" height="10" x="10" y="12" fill="#1e6823" data-count="60" data-date="2023-06-05" data-unit="20" data-retina="false" data-retinaday="20230605" data-index="76" /></a>
      <a href="https://pixe.la/v1/users/hmainland/graphs/med/20230606/retina.svg" target="_blank"><rect class="each-day" rx="2" ry="2" width="10" height="10" x="10" y="24" fill="#1e6823" data-count="20" data-date="2023-06-06" data-unit="20" data-retina="false" data-retinaday="20230606" data-index="75" /></a>
      <a href="https://pixe.la/v1/users/hmainland/graphs/med/20230607/retina.svg" target="_blank"><rect class="each-day" rx="2" ry="2" width="10" height="10" x="10" y="36" fill="#1e6823" data-count="20" data-date="2023-06-07" data-unit="20" data-retina="false" data-retinaday="20230607" data-index="74" /></a>
      <a href="https://pixe.la/v1/users/hmainland/graphs/med/20230608/retina.svg" target="_blank"><rect class="each-day" rx="2" ry="2" width="10" height="10" x="10" y="48" fill="#1e6823" data-count="20" data-date="2023-06-08" data-unit="20" data-retina="false" data-retinaday="20230608" data-index="73" /></a>
      <a href="https://pixe.la/v1/users/hmainland/graphs/med/20230609/retina.svg" target="_blank"><rect class="each-day" rx="2" ry="2" width="10" height="10" x="10" y="60" fill="#eeeeee" data-count="0" data-date="2023-06-09" data-unit="20" data-retina="false" data-retinaday="20230609" data-index="72" /></a>
      <a href="https://pixe.la/v1/users/hmainland/graphs/med/20230610/retina.svg" target="_blank"><rect class="each-day" rx="2" ry="2" width="10" height="10" x="10" y="72" fill="#1e6823" data-count="20" data-date="2023-06-10" data-unit="20" data-retina="false" data-retinaday="20230610" data-index="71" /></a>
        <rect class="weekly-streak" rx="2" ry="2" width="10" height="5" x="10" y="85" fill="#1e6823" data-week="20230604 - 20230610" data-avg-count="25.71" data-sum-count="180" data-unit="20" data-index="3" /></g>
        
      
      
        <g transform="translate(52, 0)"><a href="https://pixe.la/v1/users/hmainland/graphs/med/20230611/retina.svg" target="_blank"><rect class="each-day" rx="2" ry="2" width="10" height="10" x="9" y="0" fill="#1e6823" data-count="20" data-date="2023-06-11" data-unit="20" data-retina="false" data-retinaday="20230611" data-index="70" /></a>
      <a href="https://pixe.la/v1/users/hmainland/graphs/med/20230612/retina.svg" target="_blank"><rect class="each-day" rx="2" ry="2" width="10" height="10" x="9" y="12" fill="#1e6823" data-count="20" data-date="2023-06-12" data-unit="20" data-retina="false" data-retinaday="20230612" data-index="69" /></a>
      <a href="https://pixe.la/v1/users/hmainland/graphs/med/20230613/retina.svg" target="_blank"><rect class="each-day" rx="2" ry="2" width="10" height="10" x="9" y="24" fill="#1e6823" data-count="20" data-date="2023-06-13" data-unit="20" data-retina="false" data-retinaday="20230613" data-index="68" /></a>
      <a href="https://pixe.la/v1/users/hmainland/graphs/med/20230614/retina.svg" target="_blank"><rect class="each-day" rx="2" ry="2" width="10" height="10" x="9" y="36" fill="#eeeeee" data-count="0" data-date="2023-06-14" data-unit="20" data-retina="false" data-retinaday="20230614" data-index="67" /></a>
      <a href="https://pixe.la/v1/users/hmainland/graphs/med/20230615/retina.svg" target="_blank"><rect class="each-day" rx="2" ry="2" width="10" height="10" x="9" y="48" fill="#eeeeee" data-count="0" data-date="2023-06-15" data-unit="20" data-retina="false" data-retinaday="20230615" data-index="66" /></a>
      <a href="https://pixe.la/v1/users/hmainland/graphs/med/20230616/retina.svg" target="_blank"><rect class="each-day" rx="2" ry="2" width="10" height="10" x="9" y="60" fill="#eeeeee" data-count="0" data-date="2023-06-16" data-unit="20" data-retina="false" data-retinaday="20230616" data-index="65" /></a>
      <a href="https://pixe.la/v1/users/hmainland/graphs/med/20230617/retina.svg" target="_blank"><rect class="each-day" rx="2" ry="2" width="10" height="10" x="9" y="72" fill="#eeeeee" data-count="0" data-date="2023-06-17" data-unit="20" data-retina="false" data-retinaday="20230617" data-index="64" /></a>
        <rect class="weekly-streak" rx="2" ry="2" width="10" height="5" x="9" y="85" fill="#8cc665" data-week="20230611 - 20230617" data-avg-count="8.57" data-sum-count="60" data-unit="20" data-index="4" /></g>
        
      
      
        <g transform="translate(65, 0)"><a href="https://pixe.la/v1/users/hmainland/graphs/med/20230618/retina.svg" target="_blank"><rect class="each-day" rx="2" ry="2" width="10" height="10" x="8" y="0" fill="#eeeeee" data-count="0" data-date="2023-06-18" data-unit="20" data-retina="false" data-retinaday="20230618" data-index="63" /></a>
      <a href="https://pixe.la/v1/users/hmainland/graphs/med/20230619/retina.svg" target="_blank"><rect class="each-day" rx="2" ry="2" width="10" height="10" x="8" y="12" fill="#eeeeee" data-count="0" data-date="2023-06-19" data-unit="20" data-retina="false" data-retinaday="20230619" data-index="62" /></a>
      <a href="https://pixe.la/v1/users/hmainland/graphs/med/20230620/retina.svg" target="_blank"><rect class="each-day" rx="2" ry="2" width="10" height="10" x="8" y="24" fill="#eeeeee" data-count="0" data-date="2023-06-20" data-unit="20" data-retina="false" data-retinaday="20230620" data-index="61" /></a>
      <a href="https://pixe.la/v1/users/hmainland/graphs/med/20230621/retina.svg" target="_blank"><rect class="each-day" rx="2" ry="2" width="10" height="10" x="8" y="36" fill="#eeeeee" data-count="0" data-date="2023-06-21" data-unit="20" data-retina="false" data-retinaday="20230621" data-index="60" /></a>
      <a href="https://pixe.la/v1/users/hmainland/graphs/med/20230622/retina.svg" target="_blank"><rect class="each-day" rx="2" ry="2" width="10" height="10" x="8" y="48" fill="#eeeeee" data-count="0" data-date="2023-06-22" data-unit="20" data-retina="false" data-retinaday="20230622" data-index="59" /></a>
      <a href="https://pixe.la/v1/users/hmainland/graphs/med/20230623/retina.svg" target="_blank"><rect class="each-day" rx="2" ry="2" width="10" height="10" x="8" y="60" fill="#eeeeee" data-count="0" data-date="2023-06-23" data-unit="20" data-retina="false" data-retinaday="20230623" data-index="58" /></a>
      <a href="https://pixe.la/v1/users/hmainland/graphs/med/20230624/retina.svg" target="_blank"><rect class="each-day" rx="2" ry="2" width="10" height="10" x="8" y="72" fill="#eeeeee" data-count="0" data-date="2023-06-24" data-unit="20" data-retina="false" data-retinaday="20230624" data-index="57" /></a>
        <rect class="weekly-streak" rx="2" ry="2" width="10" height="5" x="8" y="85" fill="#eeeeee" data-week="20230618 - 20230624" data-avg-count="0.00" data-sum-count="0" data-unit="20" data-index="5" /></g>
        
      
      
        <g transform="translate(78, 0)"><a href="https://pixe.la/v1/users/hmainland/graphs/med/20230625/retina.svg" target="_blank"><rect class="each-day" rx="2" ry="2" width="10" height="10" x="7" y="0" fill="#1e6823" data-count="20" data-date="2023-06-25" data-unit="20" data-retina="false" data-retinaday="20230625" data-index="56" /></a>
      <a href="https://pixe.la/v1/users/hmainland/graphs/med/20230626/retina.svg" target="_blank"><rect class="each-day" rx="2" ry="2" width="10" height="10" x="7" y="12" fill="#1e6823" data-count="20" data-date="2023-06-26" data-unit="20" data-retina="false" data-retinaday="20230626" data-index="55" /></a>
      <a href="https://pixe.la/v1/users/hmainland/graphs/med/20230627/retina.svg" target="_blank"><rect class="each-day" rx="2" ry="2" width="10" height="10" x="7" y="24" fill="#eeeeee" data-count="0" data-date="2023-06-27" data-unit="20" data-retina="false" data-retinaday="20230627" data-index="54" /></a>
      <a href="https://pixe.la/v1/users/hmainland/graphs/med/20230628/retina.svg" target="_blank"><rect class="each-day" rx="2" ry="2" width="10" height="10" x="7" y="36" fill="#1e6823" data-count="20" data-date="2023-06-28" data-unit="20" data-retina="true" data-retinaday="20230628" data-index="53" /></a>
      <a href="https://pixe.la/v1/users/hmainland/graphs/med/20230629/retina.svg" target="_blank"><rect class="each-day" rx="2" ry="2" width="10" height="10" x="7" y="48" fill="#1e6823" data-count="20" data-date="2023-06-29" data-unit="20" data-retina="true" data-retinaday="20230629" data-index="52" /></a>
      <a href="https://pixe.la/v1/users/hmainland/graphs/med/20230630/retina.svg" target="_blank"><rect class="each-day" rx="2" ry="2" width="10" height="10" x="7" y="60" fill="#1e6823" data-count="20" data-date="2023-06-30" data-unit="20" data-retina="false" data-retinaday="20230630" data-index="51" /></a>
      <a href="https://pixe.la/v1/users/hmainland/graphs/med/20230701/retina.svg" target="_blank"><rect class="each-day" rx="2" ry="2" width="10" height="10" x="7" y="72" fill="#eeeeee" data-count="0" data-date="2023-07-01" data-unit="20" data-retina="false" data-retinaday="20230701" data-index="50" /></a>
        <rect class="weekly-streak" rx="2" ry="2" width="10" height="5" x="7" y="85" fill="#44a340" data-week="20230625 - 20230701" data-avg-count="14.29" data-sum-count="100" data-unit="20" data-index="6" /></g>
        
      
      
        <g transform="translate(91, 0)"><a href="https://pixe.la/v1/users/hmainland/graphs/med/20230702/retina.svg" target="_blank"><rect class="each-day" rx="2" ry="2" width="10" height="10" x="6" y="0" fill="#1e6823" data-count="20" data-date="2023-07-02" data-unit="20" data-retina="true" data-retinaday="20230702" data-index="49" /></a>
      <a href="https://pixe.la/v1/users/hmainland/graphs/med/20230703/retina.svg" target="_blank"><rect class="each-day" rx="2" ry="2" width="10" height="10" x="6" y="12" fill="#1e6823" data-count="20" data-date="2023-07-03" data-unit="20" data-retina="true" data-retinaday="20230703" data-index="48" /></a>
      <a href="https://pixe.la/v1/users/hmainland/graphs/med/20230704/retina.svg" target="_blank"><rect class="each-day" rx="2" ry="2" width="10" height="10" x="6" y="24" fill="#eeeeee" data-count="0" data-date="2023-07-04" data-unit="20" data-retina="false" data-retinaday="20230704" data-index="47" /></a>
      <a href="https://pixe.la/v1/users/hmainland/graphs/med/20230705/retina.svg" target="_blank"><rect class="each-day" rx="2" ry="2" width="10" height="10" x="6" y="36" fill="#eeeeee" data-count="0" data-date="2023-07-05" data-unit="20" data-retina="false" data-retinaday="20230705" data-index="46" /></a>
      <a href="https://pixe.la/v1/users/hmainland/graphs/med/20230706/retina.svg" target="_blank"><rect class="each-day" rx="2" ry="2" width="10" height="10" x="6" y="48" fill="#eeeeee" data-count="0" data-date="2023-07-06" data-unit="20" data-retina="false" data-retinaday="20230706" data-index="45" /></a>
      <a href="https://pixe.la/v1/users/hmainland/graphs/med/20230707/retina.svg" target="_blank"><rect class="each-day" rx="2" ry="2" width="10" height="10" x="6" y="60" fill="#eeeeee" data-count="0" data-date="2023-07-07" data-unit="20" data-retina="false" data-retinaday="20230707" data-index="44" /></a>
      <a href="https://pixe.la/v1/users/hmainland/graphs/med/20230708/retina.svg" target="_blank"><rect class="each-day" rx="2" ry="2" width="10" height="10" x="6" y="72" fill="#eeeeee" data-count="0" data-date="2023-07-08" data-unit="20" data-retina="false" data-retinaday="20230708" data-index="43" /></a>
        <rect class="weekly-streak" rx="2" ry="2" width="10" height="5" x="6" y="85" fill="#d6e685" data-week="20230702 - 20230708" data-avg-count="5.71" data-sum-count="40" data-unit="20" data-index="7" /></g>
        
      
      
        <g transform="translate(104, 0)"><a href="https://pixe.la/v1/users/hmainland/graphs/med/20230709/retina.svg" target="_blank"><rect class="each-day" rx="2" ry="2" width="10" height="10" x="5" y="0" fill="#eeeeee" data-count="0" data-date="2023-07-09" data-unit="20" data-retina="false" data-retinaday="20230709" data-index="42" /></a>
      <a href="https://pixe.la/v1/users/hmainland/graphs/med/20230710/retina.svg" target="_blank"><rect class="each-day" rx="2" ry="2" width="10" height="10" x="5" y="12" fill="#eeeeee" data-count="0" data-date="2023-07-10" data-unit="20" data-retina="false" data-retinaday="20230710" data-index="41" /></a>
      <a href="https://pixe.la/v1/users/hmainland/graphs/med/20230711/retina.svg" target="_blank"><rect class="each-day" rx="2" ry="2" width="10" height="10" x="5" y="24" fill="#eeeeee" data-count="0" data-date="2023-07-11" data-unit="20" data-retina="false" data-retinaday="20230711" data-index="40" /></a>
      <a href="https://pixe.la/v1/users/hmainland/graphs/med/20230712/retina.svg" target="_blank"><rect class="each-day" rx="2" ry="2" width="10" height="10" x="5" y="36" fill="#eeeeee" data-count="0" data-date="2023-07-12" data-unit="20" data-retina="false" data-retinaday="20230712" data-index="39" /></a>
      <a href="https://pixe.la/v1/users/hmainland/graphs/med/20230713/retina.svg" target="_blank"><rect class="each-day" rx="2" ry="2" width="10" height="10" x="5" y="48" fill="#eeeeee" data-count="0" data-date="2023-07-13" data-unit="20" data-retina="false" data-retinaday="20230713" data-index="38" /></a>
      <a href="https://pixe.la/v1/users/hmainland/graphs/med/20230714/retina.svg" target="_blank"><rect class="each-day" rx="2" ry="2" width="10" height="10" x="5" y="60" fill="#1e6823" data-count="20" data-date="2023-07-14" data-unit="20" data-retina="true" data-retinaday="20230714" data-index="37" /></a>
      <a href="https://pixe.la/v1/users/hmainland/graphs/med/20230715/retina.svg" target="_blank"><rect class="each-day" rx="2" ry="2" width="10" height="10" x="5" y="72" fill="#1e6823" data-count="20" data-date="2023-07-15" data-unit="20" data-retina="true" data-retinaday="20230715" data-index="36" /></a>
        <rect class="weekly-streak" rx="2" ry="2" width="10" height="5" x="5" y="85" fill="#d6e685" data-week="20230709 - 20230715" data-avg-count="5.71" data-sum-count="40" data-unit="20" data-index="8" /></g>
        
      
      
        <g transform="translate(117, 0)"><a href="https://pixe.la/v1/users/hmainland/graphs/med/20230716/retina.svg" target="_blank"><rect class="each-day" rx="2" ry="2" width="10" height="10" x="4" y="0" fill="#1e6823" data-count="20" data-date="2023-07-16" data-unit="20" data-retina="false" data-retinaday="20230716" data-index="35" /></a>
      <a href="https://pixe.la/v1/users/hmainland/graphs/med/20230717/retina.svg" target="_blank"><rect class="each-day" rx="2" ry="2" width="10" height="10" x="4" y="12" fill="#1e6823" data-count="20" data-date="2023-07-17" data-unit="20" data-retina="true" data-retinaday="20230717" data-index="34" /></a>
      <a href="https://pixe.la/v1/users/hmainland/graphs/med/20230718/retina.svg" target="_blank"><rect class="each-day" rx="2" ry="2" width="10" height="10" x="4" y="24" fill="#1e6823" data-count="20" data-date="2023-07-18" data-unit="20" data-retina="false" data-retinaday="20230718" data-index="33" /></a>
      <a href="https://pixe.la/v1/users/hmainland/graphs/med/20230719/retina.svg" target="_blank"><rect class="each-day" rx="2" ry="2" width="10" height="10" x="4" y="36" fill="#eeeeee" data-count="0" data-date="2023-07-19" data-unit="20" data-retina="false" data-retinaday="20230719" data-index="32" /></a>
      <a href="https://pixe.la/v1/users/hmainland/graphs/med/20230720/retina.svg" target="_blank"><rect class="each-day" rx="2" ry="2" width="10" height="10" x="4" y="48" fill="#1e6823" data-count="20" data-date="2023-07-20" data-unit="20" data-retina="false" data-retinaday="20230720" data-index="31" /></a>
      <a href="https://pixe.la/v1/users/hmainland/graphs/med/20230721/retina.svg" target="_blank"><rect class="each-day" rx="2" ry="2" width="10" height="10" x="4" y="60" fill="#eeeeee" data-count="0" data-date="2023-07-21" data-unit="20" data-retina="false" data-retinaday="20230721" data-index="30" /></a>
      <a href="https://pixe.la/v1/users/hmainland/graphs/med/20230722/retina.svg" target="_blank"><rect class="each-day" rx="2" ry="2" width="10" height="10" x="4" y="72" fill="#eeeeee" data-count="0" data-date="2023-07-22" data-unit="20" data-retina="false" data-retinaday="20230722" data-index="29" /></a>
        <rect class="weekly-streak" rx="2" ry="2" width="10" height="5" x="4" y="85" fill="#8cc665" data-week="20230716 - 20230722" data-avg-count="11.43" data-sum-count="80" data-unit="20" data-index="9" /></g>
        
      
      
        <g transform="translate(130, 0)"><a href="https://pixe.la/v1/users/hmainland/graphs/med/20230723/retina.svg" target="_blank"><rect class="each-day" rx="2" ry="2" width="10" height="10" x="3" y="0" fill="#1e6823" data-count="20" data-date="2023-07-23" data-unit="20" data-retina="true" data-retinaday="20230723" data-index="28" /></a>
      <a href="https://pixe.la/v1/users/hmainland/graphs/med/20230724/retina.svg" target="_blank"><rect class="each-day" rx="2" ry="2" width="10" height="10" x="3" y="12" fill="#1e6823" data-count="20" data-date="2023-07-24" data-unit="20" data-retina="true" data-retinaday="20230724" data-index="27" /></a>
      <a href="https://pixe.la/v1/users/hmainland/graphs/med/20230725/retina.svg" target="_blank"><rect class="each-day" rx="2" ry="2" width="10" height="10" x="3" y="24" fill="#eeeeee" data-count="0" data-date="2023-07-25" data-unit="20" data-retina="false" data-retinaday="20230725" data-index="26" /></a>
      <a href="https://pixe.la/v1/users/hmainland/graphs/med/20230726/retina.svg" target="_blank"><rect class="each-day" rx="2" ry="2" width="10" height="10" x="3" y="36" fill="#1e6823" data-count="20" data-date="2023-07-26" data-unit="20" data-retina="false" data-retinaday="20230726" data-index="25" /></a>
      <a href="https://pixe.la/v1/users/hmainland/graphs/med/20230727/retina.svg" target="_blank"><rect class="each-day" rx="2" ry="2" width="10" height="10" x="3" y="48" fill="#1e6823" data-count="20" data-date="2023-07-27" data-unit="20" data-retina="true" data-retinaday="20230727" data-index="24" /></a>
      <a href="https://pixe.la/v1/users/hmainland/graphs/med/20230728/retina.svg" target="_blank"><rect class="each-day" rx="2" ry="2" width="10" height="10" x="3" y="60" fill="#1e6823" data-count="20" data-date="2023-07-28" data-unit="20" data-retina="false" data-retinaday="20230728" data-index="23" /></a>
      <a href="https://pixe.la/v1/users/hmainland/graphs/med/20230729/retina.svg" target="_blank"><rect class="each-day" rx="2" ry="2" width="10" height="10" x="3" y="72" fill="#1e6823" data-count="20" data-date="2023-07-29" data-unit="20" data-retina="false" data-retinaday="20230729" data-index="22" /></a>
        <rect class="weekly-streak" rx="2" ry="2" width="10" height="5" x="3" y="85" fill="#44a340" data-week="20230723 - 20230729" data-avg-count="17.14" data-sum-count="120" data-unit="20" data-index="10" /></g>
        
      
      
        <g transform="translate(143, 0)"><a href="https://pixe.la/v1/users/hmainland/graphs/med/20230730/retina.svg" target="_blank"><rect class="each-day" rx="2" ry="2" width="10" height="10" x="2" y="0" fill="#1e6823" data-count="20" data-date="2023-07-30" data-unit="20" data-retina="false" data-retinaday="20230730" data-index="21" /></a>
      <a href="https://pixe.la/v1/users/hmainland/graphs/med/20230731/retina.svg" target="_blank"><rect class="each-day" rx="2" ry="2" width="10" height="10" x="2" y="12" fill="#1e6823" data-count="40" data-date="2023-07-31" data-unit="20" data-retina="true" data-retinaday="20230731" data-index="20" /></a>
      <a href="https://pixe.la/v1/users/hmainland/graphs/med/20230801/retina.svg" target="_blank"><rect class="each-day" rx="2" ry="2" width="10" height="10" x="2" y="24" fill="#1e6823" data-count="40" data-date="2023-08-01" data-unit="20" data-retina="true" data-retinaday="20230801" data-index="19" /></a>
      <a href="https://pixe.la/v1/users/hmainland/graphs/med/20230802/retina.svg" target="_blank"><rect class="each-day" rx="2" ry="2" width="10" height="10" x="2" y="36" fill="#1e6823" data-count="20" data-date="2023-08-02" data-unit="20" data-retina="false" data-retinaday="20230802" data-index="18" /></a>
      <a href="https://pixe.la/v1/users/hmainland/graphs/med/20230803/retina.svg" target="_blank"><rect class="each-day" rx="2" ry="2" width="10" height="10" x="2" y="48" fill="#eeeeee" data-count="0" data-date="2023-08-03" data-unit="20" data-retina="false" data-retinaday="20230803" data-index="17" /></a>
      <a href="https://pixe.la/v1/users/hmainland/graphs/med/20230804/retina.svg" target="_blank"><rect class="each-day" rx="2" ry="2" width="10" height="10" x="2" y="60" fill="#eeeeee" data-count="0" data-date="2023-08-04" data-unit="20" data-retina="false" data-retinaday="20230804" data-index="16" /></a>
      <a href="https://pixe.la/v1/users/hmainland/graphs/med/20230805/retina.svg" target="_blank"><rect class="each-day" rx="2" ry="2" width="10" height="10" x="2" y="72" fill="#1e6823" data-count="20" data-date="2023-08-05" data-unit="20" data-retina="true" data-retinaday="20230805" data-index="15" /></a>
        <rect class="weekly-streak" rx="2" ry="2" width="10" height="5" x="2" y="85" fill="#1e6823" data-week="20230730 - 20230805" data-avg-count="20.00" data-sum-count="140" data-unit="20" data-index="11" /></g>
        
      
      
        <g transform="translate(156, 0)"><a href="https://pixe.la/v1/users/hmainland/graphs/med/20230806/retina.svg" target="_blank"><rect class="each-day" rx="2" ry="2" width="10" height="10" x="1" y="0" fill="#1e6823" data-count="20" data-date="2023-08-06" data-unit="20" data-retina="false" data-retinaday="20230806" data-index="14" /></a>
      <a href="https://pixe.la/v1/users/hmainland/graphs/med/20230807/retina.svg" target="_blank"><rect class="each-day" rx="2" ry="2" width="10" height="10" x="1" y="12" fill="#1e6823" data-count="20" data-date="2023-08-07" data-unit="20" data-retina="false" data-retinaday="20230807" data-index="13" /></a>
      <a href="https://pixe.la/v1/users/hmainland/graphs/med/20230808/retina.svg" target="_blank"><rect class="each-day" rx="2" ry="2" width="10" height="10" x="1" y="24" fill="#eeeeee" data-count="0" data-date="2023-08-08" data-unit="20" data-retina="false" data-retinaday="20230808" data-index="12" /></a>
      <a href="https://pixe.la/v1/users/hmainland/graphs/med/20230809/retina.svg" target="_blank"><rect class="each-day" rx="2" ry="2" width="10" height="10" x="1" y="36" fill="#1e6823" data-count="20" data-date="2023-08-09" data-unit="20" data-retina="false" data-retinaday="20230809" data-index="11" /></a>
      <a href="https://pixe.la/v1/users/hmainland/graphs/med/20230810/retina.svg" target="_blank"><rect class="each-day" rx="2" ry="2" width="10" height="10" x="1" y="48" fill="#1e6823" data-count="20" data-date="2023-08-10" data-unit="20" data-retina="true" data-retinaday="20230810" data-index="10" /></a>
      <a href="https://pixe.la/v1/users/hmainland/graphs/med/20230811/retina.svg" target="_blank"><rect class="each-day" rx="2" ry="2" width="10" height="10" x="1" y="60" fill="#eeeeee" data-count="0" data-date="2023-08-11" data-unit="20" data-retina="false" data-retinaday="20230811" data-index="9" /></a>
      <a href="https://pixe.la/v1/users/hmainland/graphs/med/20230812/retina.svg" target="_blank"><rect class="each-day" rx="2" ry="2" width="10" height="10" x="1" y="72" fill="#eeeeee" data-count="0" data-date="2023-08-12" data-unit="20" data-retina="false" data-retinaday="20230812" data-index="8" /></a>
        <rect class="weekly-streak" rx="2" ry="2" width="10" height="5" x="1" y="85" fill="#8cc665" data-week="20230806 - 20230812" data-avg-count="11.43" data-sum-count="80" data-unit="20" data-index="12" /></g>
        
      
      
        <g transform="translate(169, 0)"><a href="https://pixe.la/v1/users/hmainland/graphs/med/20230813/retina.svg" target="_blank"><rect class="each-day" rx="2" ry="2" width="10" height="10" x="0" y="0" fill="#eeeeee" data-count="0" data-date="2023-08-13" data-unit="20" data-retina="false" data-retinaday="20230813" data-index="7" /></a>
      <a href="https://pixe.la/v1/users/hmainland/graphs/med/20230814/retina.svg" target="_blank"><rect class="each-day" rx="2" ry="2" width="10" height="10" x="0" y="12" fill="#eeeeee" data-count="0" data-date="2023-08-14" data-unit="20" data-retina="false" data-retinaday="20230814" data-index="6" /></a>
      <a href="https://pixe.la/v1/users/hmainland/graphs/med/20230815/retina.svg" target="_blank"><rect class="each-day" rx="2" ry="2" width="10" height="10" x="0" y="24" fill="#1e6823" data-count="20" data-date="2023-08-15" data-unit="20" data-retina="false" data-retinaday="20230815" data-index="5" /></a>
      <a href="https://pixe.la/v1/users/hmainland/graphs/med/20230816/retina.svg" target="_blank"><rect class="each-day" rx="2" ry="2" width="10" height="10" x="0" y="36" fill="#1e6823" data-count="20" data-date="2023-08-16" data-unit="20" data-retina="true" data-retinaday="20230816" data-index="4" /></a>
      <a href="https://pixe.la/v1/users/hmainland/graphs/med/20230817/retina.svg" target="_blank"><rect class="each-day" rx="2" ry="2" width="10" height="10" x="0" y="48" fill="#1e6823" data-count="20" data-date="2023-08-17" data-unit="20" data-retina="false" data-retinaday="20230817" data-index="3" /></a>
      <a href="https://pixe.la/v1/users/hmainland/graphs/med/20230818/retina.svg" target="_blank"><rect class="each-day" rx="2" ry="2" width="10" height="10" x="0" y="60" fill="#1e6823" data-count="20" data-date="2023-08-18" data-unit="20" data-retina="true" data-retinaday="20230818" data-index="2" /></a>
      <a href="https://pixe.la/v1/users/hmainland/graphs/med/20230819/retina.svg" target="_blank"><rect class="each-day" rx="2" ry="2" width="10" height="10" x="0" y="72" fill="#eeeeee" data-count="0" data-date="2023-08-19" data-unit="20" data-retina="false" data-retinaday="20230819" data-index="1" /></a>
        <rect class="weekly-streak" rx="2" ry="2" width="10" height="5" x="0" y="85" fill="#8cc665" data-week="20230813 - 20230819" data-avg-count="11.43" data-sum-count="80" data-unit="20" data-index="13" /></g>
        
      
    <text x="13" y="-5" class="month">5</text><text x="39" y="-5" class="month">6</text><text x="91" y="-5" class="month">7</text><text x="143" y="-5" class="month">8</text>
        
      
        
      
        
      
        
      
    <g transform="translate(109 , 3)">
      <rect class="day" rx="2" ry="2" width="11" height="11" x="0" y="99" fill="#eeeeee"/>
    </g>
    <g transform="translate(124 , 3)">
      <rect class="day" rx="2" ry="2" width="11" height="11" x="0" y="99" fill="#d6e685"/>
    </g>
    <g transform="translate(139 , 3)">
      <rect class="day" rx="2" ry="2" width="11" height="11" x="0" y="99" fill="#8cc665"/>
    </g>
    <g transform="translate(154 , 3)">
      <rect class="day" rx="2" ry="2" width="11" height="11" x="0" y="99" fill="#44a340"/>
    </g>
    <g transform="translate(169 , 3)">
      <rect class="day" rx="2" ry="2" width="11" height="11" x="0" y="99" fill="#1e6823"/>
    </g>

<a href="https://pixe.la/v1/users/hmainland/graphs/med.html" target="_blank">
<g>

<rect x="5" y="93" width="23px" height="22px" fill="white" fill-opacity="0.5" stroke="none"/>
<svg version="1.0" xmlns="http://www.w3.org/2000/svg" x="5" y="93" width="23px" height="22px" viewBox="0 0 7600 7480" preserveAspectRatio="xMidYMid meet">
<g id="layer101" fill="#000000" stroke="none">
 <path d="M4580 6976 l0 -506 943 0 942 1 -90 86 c-416 396 -983 712 -1565 871 -80 22 -164 43 -187 47 l-43 7 0 -506z"/>
 <path d="M2290 6970 l0 -500 500 0 500 0 0 500 0 500 -500 0 -500 0 0 -500z"/>
 <path d="M3430 6970 l0 -500 505 0 505 0 0 500 0 500 -505 0 -505 0 0 -500z"/>
 <path d="M1140 5830 l0 -500 505 0 505 0 0 500 0 500 -505 0 -505 0 0 -500z"/>
 <path d="M2290 5830 l0 -500 500 0 500 0 0 500 0 500 -500 0 -500 0 0 -500z"/>
 <path d="M3430 5830 l0 -500 505 0 505 0 0 500 0 500 -505 0 -505 0 0 -500z"/>
 <path d="M4580 5830 l0 -500 1339 0 1340 0 -31 68 c-136 291 -353 622 -577 879 l-46 53 -1012 0 -1013 0 0 -500z"/>
 <path d="M0 4690 l0 -500 500 0 500 0 0 500 0 500 -500 0 -500 0 0 -500z"/>
 <path d="M1140 4690 l0 -500 505 0 505 0 0 500 0 500 -505 0 -505 0 0 -500z"/>
 <path d="M2290 4690 l0 -500 500 0 500 0 0 500 0 500 -500 0 -500 0 0 -500z"/>
 <path d="M3430 4690 l0 -500 505 0 505 0 0 500 0 500 -505 0 -505 0 0 -500z"/>
 <path d="M4580 4690 l0 -500 1493 0 1494 0 -13 98 c-39 285 -112 578 -206 824 l-30 78 -1369 0 -1369 0 0 -500z"/>
 <path d="M4585 4015 c17 -13 77 -61 134 -106 132 -104 329 -294 437 -424 492 -587 701 -1285 573 -1920 -105 -520 -440 -980 -940 -1290 -179 -111 -348 -184 -559 -241 -118 -32 -121 -34 -60 -29 414 36 978 220 1415 464 559 312 1053 760 1394 1266 327 485 519 978 596 1535 19 135 31 515 20 652 l-7 96 -431 6 c-238 3 -920 8 -1517 10 l-1085 4 30 -23z"/>
 <path d="M2588 3995 c-632 -106 -1113 -500 -1318 -1080 -78 -220 -112 -477 -92 -687 28 -287 109 -486 261 -639 64 -64 93 -85 181 -127 246 -120 506 -142 733 -64 143 49 258 142 342 277 l44 70 -6 1133 -6 1132 -31 -1 c-17 -1 -66 -7 -108 -14z"/>
 <path d="M4816 3533 c252 -329 378 -768 334 -1164 -89 -814 -732 -1387 -1430 -1274 -273 45 -534 181 -807 424 -50 44 -94 81 -96 81 -2 0 -21 -28 -43 -62 -148 -241 -441 -371 -762 -338 -125 13 -250 48 -361 101 -46 22 -85 38 -87 36 -5 -5 82 -203 121 -274 290 -533 803 -884 1450 -994 156 -27 440 -36 600 -20 484 49 897 229 1214 526 436 411 655 1005 590 1603 -49 456 -277 917 -642 1298 -91 95 -133 125 -81 57z"/>
 <path d="M3950 2715 c-108 -30 -194 -109 -238 -218 -33 -83 -29 -205 10 -289 128 -275 524 -274 654 1 50 104 41 254 -21 350 -85 133 -254 198 -405 156z"/>
 </g>
<g id="layer102" fill="#226727" stroke="none">
 <path d="M4580 6975 l0 -505 943 0 942 1 -80 76 c-370 353 -861 646 -1366 817 -126 42 -397 116 -426 116 -10 0 -13 -106 -13 -505z"/>
 <path d="M2290 6970 l0 -500 500 0 500 0 0 500 0 500 -500 0 -500 0 0 -500z"/>
 <path d="M3430 6970 l0 -500 505 0 505 0 0 500 0 500 -505 0 -505 0 0 -500z"/>
 <path d="M1140 5830 l0 -500 505 0 505 0 0 500 0 500 -505 0 -505 0 0 -500z"/>
 <path d="M2290 5830 l0 -500 500 0 500 0 0 500 0 500 -500 0 -500 0 0 -500z"/>
 <path d="M3437 6323 c-4 -3 -7 -228 -7 -500 l0 -493 505 0 505 0 0 500 0 500 -498 0 c-274 0 -502 -3 -505 -7z"/>
 <path d="M4580 5830 l0 -500 1340 0 1340 0 -69 139 c-151 301 -331 568 -559 829 l-28 32 -1012 0 -1012 0 0 -500z"/>
 <path d="M0 4690 l0 -500 500 0 500 0 0 500 0 500 -500 0 -500 0 0 -500z"/>
 <path d="M1140 4690 l0 -500 505 0 505 0 0 500 0 500 -505 0 -505 0 0 -500z"/>
 <path d="M2290 4690 l0 -500 500 0 500 0 0 500 0 500 -500 0 -500 0 0 -500z"/>
 <path d="M3430 4690 l0 -500 505 0 505 0 0 500 0 500 -505 0 -505 0 0 -500z"/>
 <path d="M4580 4690 l0 -500 1493 0 1494 0 -13 98 c-38 281 -113 581 -206 824 l-30 78 -1369 0 -1369 0 0 -500z"/>
 <path d="M4560 4036 c0 -1 55 -45 123 -96 169 -130 447 -410 568 -572 427 -572 598 -1215 478 -1802 -103 -508 -405 -938 -879 -1251 -207 -137 -385 -217 -620 -281 -117 -32 -121 -34 -60 -28 361 31 851 179 1245 376 1234 615 2060 1764 2175 3028 11 127 13 438 4 541 l-7 67 -441 6 c-475 6 -2586 16 -2586 12z"/>
 <path d="M2585 3994 c-404 -72 -708 -230 -964 -500 -457 -483 -585 -1259 -292 -1769 51 -90 170 -202 266 -252 281 -146 602 -160 846 -38 88 45 196 146 254 239 l44 71 -6 1133 -6 1132 -31 -1 c-17 0 -67 -7 -111 -15z"/>
 <path d="M4800 3568 c0 -4 30 -52 66 -105 364 -540 390 -1210 66 -1753 -270 -454 -738 -691 -1212 -615 -267 44 -538 185 -797 415 -56 49 -104 90 -106 90 -2 0 -21 -27 -41 -60 -213 -345 -689 -447 -1125 -239 -46 22 -85 38 -87 36 -2 -1 19 -54 45 -116 285 -660 890 -1085 1666 -1171 209 -23 514 -6 732 41 212 46 482 154 653 261 297 188 551 473 705 793 331 691 215 1495 -312 2153 -76 95 -252 283 -253 270z"/>
 </g>
<g id="layer103" fill="#48a245" stroke="none">
 <path d="M3430 6970 l0 -500 505 0 505 0 0 500 0 500 -505 0 -505 0 0 -500z"/>
 <path d="M1140 5830 l0 -500 505 0 505 0 0 500 0 500 -505 0 -505 0 0 -500z"/>
 <path d="M2290 5830 l0 -500 500 0 500 0 0 500 0 500 -500 0 -500 0 0 -500z"/>
 <path d="M4580 5830 l0 -500 1340 0 1341 0 -80 158 c-132 261 -296 508 -490 739 l-86 103 -1012 0 -1013 0 0 -500z"/>
 <path d="M0 4690 l0 -500 500 0 500 0 0 500 0 500 -500 0 -500 0 0 -500z"/>
 <path d="M1140 4690 l0 -500 505 0 505 0 0 500 0 500 -505 0 -505 0 0 -500z"/>
 <path d="M3438 4690 l-3 -500 503 0 502 0 0 500 0 500 -500 0 -500 0 -2 -500z"/>
 <path d="M4580 4690 l0 -500 1493 0 1494 0 -13 98 c-38 281 -113 581 -206 824 l-30 78 -1369 0 -1369 0 0 -500z"/>
 <path d="M2585 3994 c-404 -72 -708 -230 -964 -500 -457 -483 -585 -1259 -292 -1769 51 -90 170 -202 266 -252 281 -146 602 -160 846 -38 88 45 196 146 254 239 l44 71 -6 1133 -6 1132 -31 -1 c-17 0 -67 -7 -111 -15z"/>
 <path d="M4800 3568 c0 -4 30 -52 66 -105 364 -540 390 -1210 66 -1753 -270 -454 -738 -691 -1212 -615 -267 44 -538 185 -797 415 -56 49 -104 90 -106 90 -2 0 -21 -27 -41 -60 -213 -345 -689 -447 -1125 -239 -46 22 -85 38 -87 36 -2 -1 19 -54 45 -116 285 -660 890 -1085 1666 -1171 209 -23 514 -6 732 41 212 46 482 154 653 261 297 188 551 473 705 793 331 691 215 1495 -312 2153 -76 95 -252 283 -253 270z"/>
 </g>
<g id="layer104" fill="#8ec56a" stroke="none">
 <path d="M3437 7463 c-4 -3 -7 -228 -7 -500 l0 -493 505 0 505 0 0 500 0 500 -498 0 c-274 0 -502 -3 -505 -7z"/>
 <path d="M2290 5830 l0 -500 500 0 500 0 0 500 0 500 -500 0 -500 0 0 -500z"/>
 <path d="M0 4690 l0 -500 500 0 500 0 0 500 0 500 -500 0 -500 0 0 -500z"/>
 <path d="M1140 4690 l0 -500 505 0 505 0 0 500 0 500 -505 0 -505 0 0 -500z"/>
 <path d="M4580 4690 l0 -500 1490 0 1490 0 0 34 c0 55 -48 325 -85 474 -32 131 -88 311 -135 435 l-21 57 -1370 0 -1369 0 0 -500z"/>
 <path d="M2585 3994 c-404 -72 -708 -230 -964 -500 -457 -483 -585 -1259 -292 -1769 51 -90 170 -202 266 -252 281 -146 602 -160 846 -38 88 45 196 146 254 239 l44 71 -6 1133 -6 1132 -31 -1 c-17 0 -67 -7 -111 -15z"/>
 <path d="M4800 3568 c0 -4 30 -51 67 -105 126 -187 220 -410 265 -635 32 -161 32 -434 0 -593 -107 -537 -442 -949 -892 -1099 -437 -145 -915 -2 -1356 407 -34 31 -64 57 -66 57 -3 0 -21 -26 -41 -59 -141 -227 -369 -345 -667 -344 -178 1 -321 34 -474 110 l-69 35 7 -29 c13 -50 93 -222 147 -311 323 -542 887 -884 1574 -953 73 -7 188 -10 295 -6 697 23 1280 330 1635 862 489 733 423 1652 -174 2395 -77 95 -250 281 -251 268z"/>
 </g>
<g id="layer105" fill="#d6e58a" stroke="none">
 <path d="M2290 5830 l0 -500 500 0 500 0 0 500 0 500 -500 0 -500 0 0 -500z"/>
 <path d="M0 4690 l0 -500 500 0 500 0 0 500 0 500 -500 0 -500 0 0 -500z"/>
 <path d="M2640 4003 c-118 -19 -252 -51 -339 -80 -383 -127 -694 -376 -893 -713 -297 -502 -315 -1155 -43 -1536 67 -94 146 -159 260 -214 274 -134 588 -143 818 -23 91 47 219 172 264 258 l32 60 -6 1128 -6 1127 -31 -1 c-17 -1 -42 -4 -56 -6z"/>
 </g>
</svg>
</g>
</a>

    <text class="legend" x="93" y="113">0</text>
    <text class="legend" x="188" y="112">+</text></g>
</svg>